<?xml version="1.0" encoding="UTF-8" standalone="no"?>
<svg
   xmlns:dc="http://purl.org/dc/elements/1.1/"
   xmlns:cc="http://creativecommons.org/ns#"
   xmlns:rdf="http://www.w3.org/1999/02/22-rdf-syntax-ns#"
   xmlns:svg="http://www.w3.org/2000/svg"
   xmlns="http://www.w3.org/2000/svg"
   xmlns:sodipodi="http://sodipodi.sourceforge.net/DTD/sodipodi-0.dtd"
   xmlns:inkscape="http://www.inkscape.org/namespaces/inkscape"
   width="24"
   height="24"
   viewBox="0 0 24 24"
   version="1.1"
   id="svg4"
   sodipodi:docname="trashcan.svg"
   inkscape:version="0.92.4 (5da689c313, 2019-01-14)">
  <metadata
     id="metadata10">
    <rdf:RDF>
      <cc:Work
         rdf:about="">
        <dc:format>image/svg+xml</dc:format>
        <dc:type
           rdf:resource="http://purl.org/dc/dcmitype/StillImage" />
      </cc:Work>
    </rdf:RDF>
  </metadata>
  <defs
     id="defs8" />
  <sodipodi:namedview
     pagecolor="#ffffff"
     bordercolor="#666666"
     borderopacity="1"
     objecttolerance="10"
     gridtolerance="10"
     guidetolerance="10"
     inkscape:pageopacity="0"
     inkscape:pageshadow="2"
     inkscape:window-width="2400"
     inkscape:window-height="1271"
     id="namedview6"
     showgrid="false"
     inkscape:zoom="9.8333333"
     inkscape:cx="-4.9830509"
     inkscape:cy="12"
     inkscape:window-x="-9"
     inkscape:window-y="-9"
     inkscape:window-maximized="1"
     inkscape:current-layer="svg4" />
  <path
     d="M 4.1898305,6.7932204 V 22.413559 H 19.81017 V 6.7932204 Z M 8.5288136,18.942373 c 0,0.479024 -0.3887729,0.867797 -0.8677966,0.867797 -0.4790238,0 -0.8677966,-0.388773 -0.8677966,-0.867797 v -8.677966 c 0,-0.4790239 0.3887728,-0.8677968 0.8677966,-0.8677968 0.4790237,0 0.8677966,0.3887729 0.8677966,0.8677968 z m 4.3389834,0 c 0,0.479024 -0.388773,0.867797 -0.867797,0.867797 -0.479024,0 -0.867797,-0.388773 -0.867797,-0.867797 v -8.677966 c 0,-0.4790239 0.388773,-0.8677968 0.867797,-0.8677968 0.479024,0 0.867797,0.3887729 0.867797,0.8677968 z m 4.338983,0 c 0,0.479024 -0.388773,0.867797 -0.867797,0.867797 -0.479024,0 -0.867797,-0.388773 -0.867797,-0.867797 v -8.677966 c 0,-0.4790239 0.388773,-0.8677968 0.867797,-0.8677968 0.479024,0 0.867797,0.3887729 0.867797,0.8677968 z M 20.677966,3.3220339 V 5.0576271 H 3.3220339 V 3.3220339 h 4.9559865 c 0.7810169,0 1.4153762,-0.9537085 1.4153762,-1.7355932 h 4.6123394 c 0,0.7818847 0.633491,1.7355932 1.415376,1.7355932 z"
     id="path2"
     inkscape:connector-curvature="0"
     style="stroke-width:1;fill:#ffffff" />
</svg>
